<mxfile host="app.diagrams.net" modified="2022-04-10T13:01:05.169Z" agent="5.0 (Windows NT 10.0; Win64; x64) AppleWebKit/537.36 (KHTML, like Gecko) Chrome/100.0.4896.75 Safari/537.36" etag="mr7_aqMYNT5YlwUoPa_8" version="17.4.2" type="github" pages="3">
  <diagram id="8nH-adLAOv0M6eSok85y" name="index.html">
    <mxGraphModel dx="3008" dy="1373" grid="1" gridSize="10" guides="1" tooltips="1" connect="1" arrows="1" fold="1" page="1" pageScale="1" pageWidth="827" pageHeight="1169" math="0" shadow="0">
      <root>
        <mxCell id="0" />
        <mxCell id="1" parent="0" />
        <mxCell id="lS0JQyzxnlS5dcJUhoOn-5" value="" style="strokeWidth=1;shadow=0;dashed=0;align=center;html=1;shape=mxgraph.mockup.containers.browserWindow;rSize=0;strokeColor=none;strokeColor2=#008cff;strokeColor3=#c4c4c4;mainText=,;recursiveResize=0;fontFamily=Verdana;" parent="1" vertex="1">
          <mxGeometry x="-540" y="200" width="1160" height="1000" as="geometry" />
        </mxCell>
        <mxCell id="lS0JQyzxnlS5dcJUhoOn-6" value="&lt;font style=&quot;font-size: 12px&quot;&gt;Hockey | History&lt;/font&gt;" style="strokeWidth=1;shadow=0;dashed=0;align=center;html=1;shape=mxgraph.mockup.containers.anchor;fontSize=17;fontColor=#666666;align=left;fontFamily=Verdana;" parent="lS0JQyzxnlS5dcJUhoOn-5" vertex="1">
          <mxGeometry x="60" y="12" width="110" height="26" as="geometry" />
        </mxCell>
        <mxCell id="lS0JQyzxnlS5dcJUhoOn-7" value="https://www.draw.io" style="strokeWidth=1;shadow=0;dashed=0;align=center;html=1;shape=mxgraph.mockup.containers.anchor;rSize=0;fontSize=17;fontColor=#666666;align=left;fontFamily=Verdana;" parent="lS0JQyzxnlS5dcJUhoOn-5" vertex="1">
          <mxGeometry x="130" y="60" width="250" height="26" as="geometry" />
        </mxCell>
        <mxCell id="lS0JQyzxnlS5dcJUhoOn-2" value="" style="verticalLabelPosition=bottom;shadow=0;dashed=0;align=center;html=1;verticalAlign=top;strokeWidth=1;shape=mxgraph.mockup.graphics.simpleIcon;strokeColor=#999999;" parent="lS0JQyzxnlS5dcJUhoOn-5" vertex="1">
          <mxGeometry x="65" y="190" width="1005" height="110" as="geometry" />
        </mxCell>
        <mxCell id="lS0JQyzxnlS5dcJUhoOn-9" value="&lt;h1&gt;Main Title&lt;/h1&gt;" style="strokeWidth=1;shadow=0;dashed=0;align=center;html=1;shape=mxgraph.mockup.text.textBox;fontColor=#666666;align=left;fontSize=17;spacingLeft=4;spacingTop=-3;strokeColor=none;mainText=;fontFamily=Montserrat Alternates;fontSource=https%3A%2F%2Ffonts.googleapis.com%2Fcss%3Ffamily%3DMontserrat%2BAlternates;" parent="lS0JQyzxnlS5dcJUhoOn-5" vertex="1">
          <mxGeometry x="460" y="210" width="150" height="30" as="geometry" />
        </mxCell>
        <mxCell id="lS0JQyzxnlS5dcJUhoOn-10" value="&lt;font style=&quot;font-size: 15px&quot;&gt;Subtitle&lt;/font&gt;" style="strokeWidth=1;shadow=0;dashed=0;align=center;html=1;shape=mxgraph.mockup.text.textBox;fontColor=#666666;align=left;fontSize=17;spacingLeft=4;spacingTop=-3;strokeColor=none;mainText=;fontFamily=Montserrat Alternates;fontSource=https%3A%2F%2Ffonts.googleapis.com%2Fcss%3Ffamily%3DMontserrat%2BAlternates;" parent="lS0JQyzxnlS5dcJUhoOn-5" vertex="1">
          <mxGeometry x="530" y="240" width="95" height="30" as="geometry" />
        </mxCell>
        <mxCell id="_DV4y93HBxbvO4sn7ViW-2" value="" style="verticalLabelPosition=bottom;shadow=0;dashed=0;align=center;html=1;verticalAlign=top;strokeWidth=1;shape=mxgraph.mockup.graphics.simpleIcon;strokeColor=#999999;" parent="lS0JQyzxnlS5dcJUhoOn-5" vertex="1">
          <mxGeometry x="110" y="680" width="857.5" height="20" as="geometry" />
        </mxCell>
        <mxCell id="_DV4y93HBxbvO4sn7ViW-3" value="&lt;h2&gt;Timeline&lt;/h2&gt;" style="strokeWidth=1;shadow=0;dashed=0;align=center;html=1;shape=mxgraph.mockup.text.textBox;fontColor=#666666;align=left;fontSize=17;spacingLeft=4;spacingTop=-3;strokeColor=none;mainText=;rotation=-90;fontFamily=Montserrat Alternates;fontSource=https%3A%2F%2Ffonts.googleapis.com%2Fcss%3Ffamily%3DMontserrat%2BAlternates;" parent="lS0JQyzxnlS5dcJUhoOn-5" vertex="1">
          <mxGeometry x="-3.75" y="660" width="150" height="30" as="geometry" />
        </mxCell>
        <mxCell id="_DV4y93HBxbvO4sn7ViW-5" value="&lt;font style=&quot;font-size: 13px&quot;&gt;&lt;span style=&quot;color: rgb(0 , 0 , 0)&quot;&gt;Lorem ipsum dolor sit amet, consectetur adipisicing elit, sed do eiusmod tempor incididunt ut labore et dolore magna aliqua. Ut enim ad minim veniam, quis nostrud exercitation ullamco laboris nisi ut aliquip ex ea commodo consequat. Duis aute irure dolor in reprehenderit in voluptate velit esse cillum dolore eu fugiat nulla pariatur. Excepteur sint occaecat cupidatat non proident, sunt in culpa qui officia deserunt mollit anim id est laborum.&lt;/span&gt;&lt;br style=&quot;color: rgb(0 , 0 , 0)&quot;&gt;&lt;span style=&quot;color: rgb(0 , 0 , 0)&quot;&gt;Sed ut perspiciatis unde omnis iste natus error sit voluptatem accusantium doloremque laudantium, totam rem aperiam, eaque ipsa quae ab illo inventore veritatis et quasi architecto beatae vitae dicta sunt explicabo. Nemo enim ipsam voluptatem quia voluptas sit aspernatur aut odit aut fugit, sed quia consequuntur magni dolores eos qui ratione voluptatem sequi nesciunt. Neque porro quisquam est, qui dolorem ipsum quia dolor sit amet, consectetur, adipisci velit, sed quia non numquam eius modi tempora incidunt ut labore et dolore magnam aliquam quaerat voluptatem. Ut enim ad minima veniam, quis nostrum exercitationem ullam corporis suscipit laboriosam, nisi ut aliquid ex ea commodi consequatur? Quis autem vel eum iure reprehenderit qui in ea voluptate velit esse quam nihil molestiae consequatur, vel illum qui dolorem eum fugiat quo voluptas nulla pariatur?&lt;/span&gt;&lt;/font&gt;" style="strokeWidth=1;shadow=0;dashed=0;align=center;html=1;shape=mxgraph.mockup.text.textBox;fontColor=#666666;align=left;fontSize=17;spacingLeft=4;spacingTop=-3;strokeColor=none;mainText=;whiteSpace=wrap;fontFamily=Hind;fontSource=https%3A%2F%2Ffonts.googleapis.com%2Fcss%3Ffamily%3DHind;" parent="lS0JQyzxnlS5dcJUhoOn-5" vertex="1">
          <mxGeometry x="110" y="340" width="640" height="230" as="geometry" />
        </mxCell>
        <mxCell id="_DV4y93HBxbvO4sn7ViW-6" value="&lt;h2&gt;Intro&lt;/h2&gt;" style="strokeWidth=1;shadow=0;dashed=0;align=center;html=1;shape=mxgraph.mockup.text.textBox;fontColor=#666666;align=left;fontSize=17;spacingLeft=4;spacingTop=-3;strokeColor=none;mainText=;rotation=-90;fontFamily=Montserrat Alternates;fontSource=https%3A%2F%2Ffonts.googleapis.com%2Fcss%3Ffamily%3DMontserrat%2BAlternates;" parent="lS0JQyzxnlS5dcJUhoOn-5" vertex="1">
          <mxGeometry x="32.5" y="360" width="97.5" height="30" as="geometry" />
        </mxCell>
        <mxCell id="_DV4y93HBxbvO4sn7ViW-7" value="YouTube video" style="verticalLabelPosition=bottom;shadow=0;dashed=0;align=center;html=1;verticalAlign=top;strokeWidth=1;shape=mxgraph.mockup.containers.videoPlayer;strokeColor=#666666;strokeColor2=#008cff;strokeColor3=#c4c4c4;textColor=#666666;fillColor2=#008cff;barHeight=30;barPos=20;" parent="lS0JQyzxnlS5dcJUhoOn-5" vertex="1">
          <mxGeometry x="790" y="340" width="280" height="160" as="geometry" />
        </mxCell>
        <mxCell id="Vq7wN6k5Lwtrpj-pgbCC-1" value="" style="verticalLabelPosition=bottom;verticalAlign=top;html=1;shape=mxgraph.basic.donut;dx=6.29;strokeColor=#3333FF;fillColor=#CCFF99;" parent="lS0JQyzxnlS5dcJUhoOn-5" vertex="1">
          <mxGeometry x="140" y="675" width="30" height="30" as="geometry" />
        </mxCell>
        <mxCell id="_DV4y93HBxbvO4sn7ViW-10" value="" style="verticalLabelPosition=bottom;verticalAlign=top;html=1;shape=mxgraph.basic.donut;dx=6.29;strokeColor=#3333FF;fillColor=#CCFF99;" parent="lS0JQyzxnlS5dcJUhoOn-5" vertex="1">
          <mxGeometry x="250" y="675" width="30" height="30" as="geometry" />
        </mxCell>
        <mxCell id="Vq7wN6k5Lwtrpj-pgbCC-16" value="1000BC" style="strokeWidth=1;shadow=0;dashed=0;align=center;html=1;shape=mxgraph.mockup.text.textBox;fontColor=#666666;align=left;fontSize=13;spacingLeft=4;spacingTop=-3;strokeColor=none;mainText=;fillColor=none;rotation=-45;fontFamily=Montserrat Alternates;fontSource=https%3A%2F%2Ffonts.googleapis.com%2Fcss%3Ffamily%3DMontserrat%2BAlternates;" parent="lS0JQyzxnlS5dcJUhoOn-5" vertex="1">
          <mxGeometry x="140" y="620" width="80" height="30" as="geometry" />
        </mxCell>
        <mxCell id="Vq7wN6k5Lwtrpj-pgbCC-17" value="1861" style="strokeWidth=1;shadow=0;dashed=0;align=center;html=1;shape=mxgraph.mockup.text.textBox;fontColor=#666666;align=left;fontSize=13;spacingLeft=4;spacingTop=-3;strokeColor=none;mainText=;fillColor=none;rotation=-45;fontFamily=Montserrat Alternates;fontSource=https%3A%2F%2Ffonts.googleapis.com%2Fcss%3Ffamily%3DMontserrat%2BAlternates;" parent="lS0JQyzxnlS5dcJUhoOn-5" vertex="1">
          <mxGeometry x="225" y="727.49" width="60" height="30" as="geometry" />
        </mxCell>
        <mxCell id="Vq7wN6k5Lwtrpj-pgbCC-33" value="19xx" style="strokeWidth=1;shadow=0;dashed=0;align=center;html=1;shape=mxgraph.mockup.text.textBox;fontColor=#666666;align=left;fontSize=13;spacingLeft=4;spacingTop=-3;strokeColor=none;mainText=;fillColor=none;rotation=-45;fontFamily=Montserrat Alternates;fontSource=https%3A%2F%2Ffonts.googleapis.com%2Fcss%3Ffamily%3DMontserrat%2BAlternates;" parent="lS0JQyzxnlS5dcJUhoOn-5" vertex="1">
          <mxGeometry x="350" y="610" width="80" height="30" as="geometry" />
        </mxCell>
        <mxCell id="Vq7wN6k5Lwtrpj-pgbCC-35" value="19xx" style="strokeWidth=1;shadow=0;dashed=0;align=center;html=1;shape=mxgraph.mockup.text.textBox;fontColor=#666666;align=left;fontSize=13;spacingLeft=4;spacingTop=-3;strokeColor=none;mainText=;fillColor=none;rotation=-45;fontFamily=Montserrat Alternates;fontSource=https%3A%2F%2Ffonts.googleapis.com%2Fcss%3Ffamily%3DMontserrat%2BAlternates;" parent="lS0JQyzxnlS5dcJUhoOn-5" vertex="1">
          <mxGeometry x="447.5" y="727.49" width="50" height="34.39" as="geometry" />
        </mxCell>
        <mxCell id="Vq7wN6k5Lwtrpj-pgbCC-38" value="&lt;span style=&quot;font-size: 13px;&quot;&gt;Lorem ipsum dolor sit amet, consectetur adipiscing elit&lt;/span&gt;" style="strokeWidth=1;shadow=0;dashed=0;align=center;html=1;shape=mxgraph.mockup.text.textBox;fontColor=#666666;align=left;fontSize=13;spacingLeft=4;spacingTop=-3;strokeColor=none;mainText=;fillColor=none;whiteSpace=wrap;gradientColor=#19FFFF;fontFamily=Hind;fontSource=https%3A%2F%2Ffonts.googleapis.com%2Fcss%3Ffamily%3DHind;" parent="lS0JQyzxnlS5dcJUhoOn-5" vertex="1">
          <mxGeometry x="215" y="580" width="115" height="80" as="geometry" />
        </mxCell>
        <mxCell id="Vq7wN6k5Lwtrpj-pgbCC-40" value="&lt;span style=&quot;font-size: 13px;&quot;&gt;Lorem ipsum dolor sit amet, consectetur adipiscing elit&lt;/span&gt;" style="strokeWidth=1;shadow=0;dashed=0;align=right;html=1;shape=mxgraph.mockup.text.textBox;fontColor=#666666;align=left;fontSize=13;spacingLeft=4;spacingTop=-3;strokeColor=none;mainText=;fillColor=none;whiteSpace=wrap;gradientColor=#19FFFF;fontFamily=Hind;fontSource=https%3A%2F%2Ffonts.googleapis.com%2Fcss%3Ffamily%3DHind;" parent="lS0JQyzxnlS5dcJUhoOn-5" vertex="1">
          <mxGeometry x="105" y="714.97" width="115" height="80" as="geometry" />
        </mxCell>
        <mxCell id="Vq7wN6k5Lwtrpj-pgbCC-41" value="&lt;span style=&quot;font-size: 13px;&quot;&gt;Lorem ipsum dolor sit amet, consectetur adipiscing elit&lt;/span&gt;" style="strokeWidth=1;shadow=0;dashed=0;align=center;html=1;shape=mxgraph.mockup.text.textBox;fontColor=#666666;align=left;fontSize=13;spacingLeft=4;spacingTop=-3;strokeColor=none;mainText=;fillColor=none;whiteSpace=wrap;gradientColor=#19FFFF;fontFamily=Hind;fontSource=https%3A%2F%2Ffonts.googleapis.com%2Fcss%3Ffamily%3DHind;" parent="lS0JQyzxnlS5dcJUhoOn-5" vertex="1">
          <mxGeometry x="325.94" y="717.49" width="115" height="80" as="geometry" />
        </mxCell>
        <mxCell id="Vq7wN6k5Lwtrpj-pgbCC-42" value="&lt;span style=&quot;font-size: 13px;&quot;&gt;Lorem ipsum dolor sit amet, consectetur adipiscing elit&lt;/span&gt;" style="strokeWidth=1;shadow=0;dashed=0;align=center;html=1;shape=mxgraph.mockup.text.textBox;fontColor=#666666;align=left;fontSize=13;spacingLeft=4;spacingTop=-3;strokeColor=none;mainText=;fillColor=none;whiteSpace=wrap;gradientColor=#19FFFF;fontFamily=Hind;fontSource=https%3A%2F%2Ffonts.googleapis.com%2Fcss%3Ffamily%3DHind;" parent="lS0JQyzxnlS5dcJUhoOn-5" vertex="1">
          <mxGeometry x="415" y="580" width="115" height="80" as="geometry" />
        </mxCell>
        <mxCell id="Vq7wN6k5Lwtrpj-pgbCC-43" value="19xx" style="strokeWidth=1;shadow=0;dashed=0;align=center;html=1;shape=mxgraph.mockup.text.textBox;fontColor=#666666;align=left;fontSize=13;spacingLeft=4;spacingTop=-3;strokeColor=none;mainText=;fillColor=none;rotation=-45;fontFamily=Montserrat Alternates;fontSource=https%3A%2F%2Ffonts.googleapis.com%2Fcss%3Ffamily%3DMontserrat%2BAlternates;" parent="lS0JQyzxnlS5dcJUhoOn-5" vertex="1">
          <mxGeometry x="567.5" y="610" width="80" height="30" as="geometry" />
        </mxCell>
        <mxCell id="Vq7wN6k5Lwtrpj-pgbCC-44" value="&lt;span style=&quot;font-size: 13px;&quot;&gt;Lorem ipsum dolor sit amet, consectetur adipiscing elit&lt;/span&gt;" style="strokeWidth=1;shadow=0;dashed=0;align=center;html=1;shape=mxgraph.mockup.text.textBox;fontColor=#666666;align=left;fontSize=13;spacingLeft=4;spacingTop=-3;strokeColor=none;mainText=;fillColor=none;whiteSpace=wrap;gradientColor=#19FFFF;fontFamily=Hind;fontSource=https%3A%2F%2Ffonts.googleapis.com%2Fcss%3Ffamily%3DHind;" parent="lS0JQyzxnlS5dcJUhoOn-5" vertex="1">
          <mxGeometry x="635" y="580" width="115" height="80" as="geometry" />
        </mxCell>
        <mxCell id="Vq7wN6k5Lwtrpj-pgbCC-45" value="20xx" style="strokeWidth=1;shadow=0;dashed=0;align=center;html=1;shape=mxgraph.mockup.text.textBox;fontColor=#666666;align=left;fontSize=13;spacingLeft=4;spacingTop=-3;strokeColor=none;mainText=;fillColor=none;rotation=-45;fontFamily=Montserrat Alternates;fontSource=https%3A%2F%2Ffonts.googleapis.com%2Fcss%3Ffamily%3DMontserrat%2BAlternates;" parent="lS0JQyzxnlS5dcJUhoOn-5" vertex="1">
          <mxGeometry x="785" y="610" width="80" height="30" as="geometry" />
        </mxCell>
        <mxCell id="Vq7wN6k5Lwtrpj-pgbCC-46" value="&lt;span style=&quot;font-size: 13px;&quot;&gt;Lorem ipsum dolor sit amet, consectetur adipiscing elit&lt;/span&gt;" style="strokeWidth=1;shadow=0;dashed=0;align=center;html=1;shape=mxgraph.mockup.text.textBox;fontColor=#666666;align=left;fontSize=13;spacingLeft=4;spacingTop=-3;strokeColor=none;mainText=;fillColor=none;whiteSpace=wrap;gradientColor=#19FFFF;fontFamily=Hind;fontSource=https%3A%2F%2Ffonts.googleapis.com%2Fcss%3Ffamily%3DHind;" parent="lS0JQyzxnlS5dcJUhoOn-5" vertex="1">
          <mxGeometry x="848.44" y="580" width="115" height="80" as="geometry" />
        </mxCell>
        <mxCell id="Vq7wN6k5Lwtrpj-pgbCC-47" value="&lt;span style=&quot;font-size: 13px;&quot;&gt;Lorem ipsum dolor sit amet, consectetur adipiscing elit&lt;/span&gt;" style="strokeWidth=1;shadow=0;dashed=0;align=center;html=1;shape=mxgraph.mockup.text.textBox;fontColor=#666666;align=left;fontSize=13;spacingLeft=4;spacingTop=-3;strokeColor=none;mainText=;fillColor=none;whiteSpace=wrap;gradientColor=#19FFFF;fontFamily=Hind;fontSource=https%3A%2F%2Ffonts.googleapis.com%2Fcss%3Ffamily%3DHind;" parent="lS0JQyzxnlS5dcJUhoOn-5" vertex="1">
          <mxGeometry x="550" y="720" width="115" height="80" as="geometry" />
        </mxCell>
        <mxCell id="Vq7wN6k5Lwtrpj-pgbCC-48" value="19xx" style="strokeWidth=1;shadow=0;dashed=0;align=center;html=1;shape=mxgraph.mockup.text.textBox;fontColor=#666666;align=left;fontSize=13;spacingLeft=4;spacingTop=-3;strokeColor=none;mainText=;fillColor=none;rotation=-45;fontFamily=Montserrat Alternates;fontSource=https%3A%2F%2Ffonts.googleapis.com%2Fcss%3Ffamily%3DMontserrat%2BAlternates;" parent="lS0JQyzxnlS5dcJUhoOn-5" vertex="1">
          <mxGeometry x="667.5" y="727.49" width="50" height="34.39" as="geometry" />
        </mxCell>
        <mxCell id="Vq7wN6k5Lwtrpj-pgbCC-49" value="&lt;span style=&quot;font-size: 13px;&quot;&gt;Lorem ipsum dolor sit amet, consectetur adipiscing elit&lt;/span&gt;" style="strokeWidth=1;shadow=0;dashed=0;align=center;html=1;shape=mxgraph.mockup.text.textBox;fontColor=#666666;align=left;fontSize=13;spacingLeft=4;spacingTop=-3;strokeColor=none;mainText=;fillColor=none;whiteSpace=wrap;gradientColor=#19FFFF;fontFamily=Hind;fontSource=https%3A%2F%2Ffonts.googleapis.com%2Fcss%3Ffamily%3DHind;" parent="lS0JQyzxnlS5dcJUhoOn-5" vertex="1">
          <mxGeometry x="767.5" y="720" width="115" height="80" as="geometry" />
        </mxCell>
        <mxCell id="Vq7wN6k5Lwtrpj-pgbCC-50" value="20xx" style="strokeWidth=1;shadow=0;dashed=0;align=center;html=1;shape=mxgraph.mockup.text.textBox;fontColor=#666666;align=left;fontSize=13;spacingLeft=4;spacingTop=-3;strokeColor=none;mainText=;fillColor=none;rotation=-45;fontFamily=Montserrat Alternates;fontSource=https%3A%2F%2Ffonts.googleapis.com%2Fcss%3Ffamily%3DMontserrat%2BAlternates;" parent="lS0JQyzxnlS5dcJUhoOn-5" vertex="1">
          <mxGeometry x="900" y="725.61" width="50" height="34.39" as="geometry" />
        </mxCell>
        <mxCell id="Vq7wN6k5Lwtrpj-pgbCC-52" value="" style="verticalLabelPosition=bottom;verticalAlign=top;html=1;shape=mxgraph.basic.orthogonal_triangle;strokeColor=#19F636;fillColor=none;gradientColor=#19FFFF;rotation=-90;" parent="lS0JQyzxnlS5dcJUhoOn-5" vertex="1">
          <mxGeometry x="170" y="620" width="40" height="40" as="geometry" />
        </mxCell>
        <mxCell id="Vq7wN6k5Lwtrpj-pgbCC-53" value="" style="verticalLabelPosition=bottom;verticalAlign=top;html=1;shape=mxgraph.basic.orthogonal_triangle;strokeColor=#19F636;fillColor=none;gradientColor=#19FFFF;rotation=-90;" parent="lS0JQyzxnlS5dcJUhoOn-5" vertex="1">
          <mxGeometry x="370" y="620" width="40" height="40" as="geometry" />
        </mxCell>
        <mxCell id="Vq7wN6k5Lwtrpj-pgbCC-54" value="" style="verticalLabelPosition=bottom;verticalAlign=top;html=1;shape=mxgraph.basic.orthogonal_triangle;strokeColor=#19F636;fillColor=none;gradientColor=#19FFFF;rotation=-90;" parent="lS0JQyzxnlS5dcJUhoOn-5" vertex="1">
          <mxGeometry x="587.5" y="620" width="40" height="40" as="geometry" />
        </mxCell>
        <mxCell id="Vq7wN6k5Lwtrpj-pgbCC-55" value="" style="verticalLabelPosition=bottom;verticalAlign=top;html=1;shape=mxgraph.basic.orthogonal_triangle;strokeColor=#19F636;fillColor=none;gradientColor=#19FFFF;rotation=-90;" parent="lS0JQyzxnlS5dcJUhoOn-5" vertex="1">
          <mxGeometry x="805" y="620" width="40" height="40" as="geometry" />
        </mxCell>
        <mxCell id="Vq7wN6k5Lwtrpj-pgbCC-56" value="" style="verticalLabelPosition=bottom;verticalAlign=top;html=1;shape=mxgraph.basic.orthogonal_triangle;strokeColor=#19F636;fillColor=none;gradientColor=#19FFFF;rotation=90;" parent="lS0JQyzxnlS5dcJUhoOn-5" vertex="1">
          <mxGeometry x="220" y="717.49" width="40" height="40" as="geometry" />
        </mxCell>
        <mxCell id="Vq7wN6k5Lwtrpj-pgbCC-58" value="" style="verticalLabelPosition=bottom;verticalAlign=top;html=1;shape=mxgraph.basic.orthogonal_triangle;strokeColor=#19F636;fillColor=none;gradientColor=#19FFFF;rotation=90;" parent="lS0JQyzxnlS5dcJUhoOn-5" vertex="1">
          <mxGeometry x="440.94" y="720" width="40" height="40" as="geometry" />
        </mxCell>
        <mxCell id="Vq7wN6k5Lwtrpj-pgbCC-59" value="" style="verticalLabelPosition=bottom;verticalAlign=top;html=1;shape=mxgraph.basic.orthogonal_triangle;strokeColor=#19F636;fillColor=none;gradientColor=#19FFFF;rotation=90;" parent="lS0JQyzxnlS5dcJUhoOn-5" vertex="1">
          <mxGeometry x="665" y="720" width="40" height="40" as="geometry" />
        </mxCell>
        <mxCell id="Vq7wN6k5Lwtrpj-pgbCC-60" value="" style="verticalLabelPosition=bottom;verticalAlign=top;html=1;shape=mxgraph.basic.orthogonal_triangle;strokeColor=#19F636;fillColor=none;gradientColor=#19FFFF;rotation=90;" parent="lS0JQyzxnlS5dcJUhoOn-5" vertex="1">
          <mxGeometry x="885.94" y="721.88" width="40" height="40" as="geometry" />
        </mxCell>
        <mxCell id="iF45Mxm1k5WKYSeIEss0-99" value="" style="group" vertex="1" connectable="0" parent="lS0JQyzxnlS5dcJUhoOn-5">
          <mxGeometry x="65" y="130" width="415" height="40" as="geometry" />
        </mxCell>
        <mxCell id="iF45Mxm1k5WKYSeIEss0-96" value="" style="group" vertex="1" connectable="0" parent="iF45Mxm1k5WKYSeIEss0-99">
          <mxGeometry width="120" height="40" as="geometry" />
        </mxCell>
        <mxCell id="iF45Mxm1k5WKYSeIEss0-1" value="" style="rounded=1;whiteSpace=wrap;html=1;fontFamily=Montserrat Alternates;fontSource=https%3A%2F%2Ffonts.googleapis.com%2Fcss%3Ffamily%3DMontserrat%2BAlternates;fontSize=13;" vertex="1" parent="iF45Mxm1k5WKYSeIEss0-96">
          <mxGeometry width="120" height="40" as="geometry" />
        </mxCell>
        <mxCell id="iF45Mxm1k5WKYSeIEss0-3" value="Home" style="strokeWidth=1;shadow=0;dashed=0;align=center;html=1;shape=mxgraph.mockup.text.textBox;fontColor=#666666;align=left;fontSize=17;spacingLeft=4;spacingTop=-3;strokeColor=none;mainText=;fontFamily=Montserrat Alternates;fontSource=https%3A%2F%2Ffonts.googleapis.com%2Fcss%3Ffamily%3DMontserrat%2BAlternates;" vertex="1" parent="iF45Mxm1k5WKYSeIEss0-96">
          <mxGeometry x="30" y="8" width="70" height="30" as="geometry" />
        </mxCell>
        <mxCell id="iF45Mxm1k5WKYSeIEss0-4" value="" style="shape=image;aspect=fixed;image=data:image/svg+xml,PHN2ZyB4bWxucz0iaHR0cDovL3d3dy53My5vcmcvMjAwMC9zdmciIHZpZXdCb3g9IjAgMCA1NzYgNTEyIj48cGF0aCBkPSJNMjgwLjM3IDE0OC4yNkw5NiAzMDAuMTFWNDY0YTE2IDE2IDAgMCAwIDE2IDE2bDExMi4wNi0uMjlhMTYgMTYgMCAwIDAgMTUuOTItMTZWMzY4YTE2IDE2IDAgMCAxIDE2LTE2aDY0YTE2IDE2IDAgMCAxIDE2IDE2djk1LjY0YTE2IDE2IDAgMCAwIDE2IDE2LjA1TDQ2NCA0ODBhMTYgMTYgMCAwIDAgMTYtMTZWMzAwTDI5NS42NyAxNDguMjZhMTIuMTkgMTIuMTkgMCAwIDAtMTUuMyAwek01NzEuNiAyNTEuNDdMNDg4IDE4Mi41NlY0NC4wNWExMiAxMiAwIDAgMC0xMi0xMmgtNTZhMTIgMTIgMCAwIDAtMTIgMTJ2NzIuNjFMMzE4LjQ3IDQzYTQ4IDQ4IDAgMCAwLTYxIDBMNC4zNCAyNTEuNDdhMTIgMTIgMCAwIDAtMS42IDE2LjlsMjUuNSAzMUExMiAxMiAwIDAgMCA0NS4xNSAzMDFsMjM1LjIyLTE5My43NGExMi4xOSAxMi4xOSAwIDAgMSAxNS4zIDBMNTMwLjkgMzAxYTEyIDEyIDAgMCAwIDE2LjktMS42bDI1LjUtMzFhMTIgMTIgMCAwIDAtMS43LTE2LjkzeiIvPjwvc3ZnPg==;connectable=0;movable=1;verticalLabelPosition=bottom;resizable=1;rotatable=0;cloneable=0;deletable=1;recursiveResize=0;imageBackground=none;verticalAlign=top;fontFamily=Montserrat Alternates;fontSource=https%3A%2F%2Ffonts.googleapis.com%2Fcss%3Ffamily%3DMontserrat%2BAlternates;fontSize=13;" vertex="1" parent="iF45Mxm1k5WKYSeIEss0-96">
          <mxGeometry x="14" y="15" width="16" height="16" as="geometry" />
        </mxCell>
        <mxCell id="iF45Mxm1k5WKYSeIEss0-97" value="" style="group" vertex="1" connectable="0" parent="iF45Mxm1k5WKYSeIEss0-99">
          <mxGeometry x="145" width="120" height="40" as="geometry" />
        </mxCell>
        <mxCell id="iF45Mxm1k5WKYSeIEss0-88" value="" style="rounded=1;whiteSpace=wrap;html=1;fontFamily=Montserrat Alternates;fontSource=https%3A%2F%2Ffonts.googleapis.com%2Fcss%3Ffamily%3DMontserrat%2BAlternates;fontSize=13;" vertex="1" parent="iF45Mxm1k5WKYSeIEss0-97">
          <mxGeometry width="120" height="40" as="geometry" />
        </mxCell>
        <mxCell id="iF45Mxm1k5WKYSeIEss0-90" value="Ireland" style="strokeWidth=1;shadow=0;dashed=0;align=center;html=1;shape=mxgraph.mockup.text.textBox;fontColor=#666666;align=left;fontSize=17;spacingLeft=4;spacingTop=-3;strokeColor=none;mainText=;fontFamily=Montserrat Alternates;fontSource=https%3A%2F%2Ffonts.googleapis.com%2Fcss%3Ffamily%3DMontserrat%2BAlternates;" vertex="1" parent="iF45Mxm1k5WKYSeIEss0-97">
          <mxGeometry x="30" y="8" width="70" height="30" as="geometry" />
        </mxCell>
        <mxCell id="iF45Mxm1k5WKYSeIEss0-94" value="" style="shape=image;aspect=fixed;image=data:image/svg+xml,PHN2ZyB4bWxucz0iaHR0cDovL3d3dy53My5vcmcvMjAwMC9zdmciIHZpZXdCb3g9IjAgMCA1MTIgNTEyIj48cGF0aCBkPSJNMzQ5LjU2NSA5OC43ODNDMjk1Ljk3OCA5OC43ODMgMjUxLjcyMSA2NCAxODQuMzQ4IDY0Yy0yNC45NTUgMC00Ny4zMDkgNC4zODQtNjguMDQ1IDEyLjAxM2E1NS45NDcgNTUuOTQ3IDAgMCAwIDMuNTg2LTIzLjU2MkMxMTguMTE3IDI0LjAxNSA5NC44MDYgMS4yMDYgNjYuMzM4LjA0OCAzNC4zNDUtMS4yNTQgOCAyNC4yOTYgOCA1NmMwIDE5LjAyNiA5LjQ5NyAzNS44MjUgMjQgNDUuOTQ1VjQ4OGMwIDEzLjI1NSAxMC43NDUgMjQgMjQgMjRoMTZjMTMuMjU1IDAgMjQtMTAuNzQ1IDI0LTI0di05NC40YzI4LjMxMS0xMi4wNjQgNjMuNTgyLTIyLjEyMiAxMTQuNDM1LTIyLjEyMiA1My41ODggMCA5Ny44NDQgMzQuNzgzIDE2NS4yMTcgMzQuNzgzIDQ4LjE2OSAwIDg2LjY2Ny0xNi4yOTQgMTIyLjUwNS00MC44NThDNTA2Ljg0IDM1OS40NTIgNTEyIDM0OS41NzEgNTEyIDMzOS4wNDV2LTI0My4xYzAtMjMuMzkzLTI0LjI2OS0zOC44Ny00NS40ODUtMjkuMDE2LTM0LjMzOCAxNS45NDgtNzYuNDU0IDMxLjg1NC0xMTYuOTUgMzEuODU0eiIvPjwvc3ZnPg==;connectable=0;movable=1;verticalLabelPosition=bottom;resizable=1;rotatable=0;cloneable=0;deletable=1;recursiveResize=0;imageBackground=none;verticalAlign=top;fontFamily=Montserrat Alternates;fontSource=https%3A%2F%2Ffonts.googleapis.com%2Fcss%3Ffamily%3DMontserrat%2BAlternates;fontSize=13;" vertex="1" parent="iF45Mxm1k5WKYSeIEss0-97">
          <mxGeometry x="13.060000000000002" y="15" width="16" height="16" as="geometry" />
        </mxCell>
        <mxCell id="iF45Mxm1k5WKYSeIEss0-98" value="" style="group" vertex="1" connectable="0" parent="iF45Mxm1k5WKYSeIEss0-99">
          <mxGeometry x="295" width="120" height="40" as="geometry" />
        </mxCell>
        <mxCell id="iF45Mxm1k5WKYSeIEss0-91" value="" style="rounded=1;whiteSpace=wrap;html=1;fontFamily=Montserrat Alternates;fontSource=https%3A%2F%2Ffonts.googleapis.com%2Fcss%3Ffamily%3DMontserrat%2BAlternates;fontSize=13;" vertex="1" parent="iF45Mxm1k5WKYSeIEss0-98">
          <mxGeometry width="120" height="40" as="geometry" />
        </mxCell>
        <mxCell id="iF45Mxm1k5WKYSeIEss0-93" value="Info" style="strokeWidth=1;shadow=0;dashed=0;align=center;html=1;shape=mxgraph.mockup.text.textBox;fontColor=#666666;align=left;fontSize=17;spacingLeft=4;spacingTop=-3;strokeColor=none;mainText=;fontFamily=Montserrat Alternates;fontSource=https%3A%2F%2Ffonts.googleapis.com%2Fcss%3Ffamily%3DMontserrat%2BAlternates;" vertex="1" parent="iF45Mxm1k5WKYSeIEss0-98">
          <mxGeometry x="30" y="8" width="70" height="30" as="geometry" />
        </mxCell>
        <mxCell id="iF45Mxm1k5WKYSeIEss0-95" value="" style="shape=image;aspect=fixed;image=data:image/svg+xml,PHN2ZyB4bWxucz0iaHR0cDovL3d3dy53My5vcmcvMjAwMC9zdmciIHZpZXdCb3g9IjAgMCA1MTIgNTEyIj48cGF0aCBkPSJNMjU2IDhDMTE5LjA0MyA4IDggMTE5LjA4MyA4IDI1NmMwIDEzNi45OTcgMTExLjA0MyAyNDggMjQ4IDI0OHMyNDgtMTExLjAwMyAyNDgtMjQ4QzUwNCAxMTkuMDgzIDM5Mi45NTcgOCAyNTYgOHptMCAxMTBjMjMuMTk2IDAgNDIgMTguODA0IDQyIDQycy0xOC44MDQgNDItNDIgNDItNDItMTguODA0LTQyLTQyIDE4LjgwNC00MiA0Mi00MnptNTYgMjU0YzAgNi42MjctNS4zNzMgMTItMTIgMTJoLTg4Yy02LjYyNyAwLTEyLTUuMzczLTEyLTEydi0yNGMwLTYuNjI3IDUuMzczLTEyIDEyLTEyaDEydi02NGgtMTJjLTYuNjI3IDAtMTItNS4zNzMtMTItMTJ2LTI0YzAtNi42MjcgNS4zNzMtMTIgMTItMTJoNjRjNi42MjcgMCAxMiA1LjM3MyAxMiAxMnYxMDBoMTJjNi42MjcgMCAxMiA1LjM3MyAxMiAxMnYyNHoiLz48L3N2Zz4=;connectable=0;movable=1;verticalLabelPosition=bottom;resizable=1;rotatable=0;cloneable=0;deletable=1;recursiveResize=0;imageBackground=none;verticalAlign=top;fontFamily=Montserrat Alternates;fontSource=https%3A%2F%2Ffonts.googleapis.com%2Fcss%3Ffamily%3DMontserrat%2BAlternates;fontSize=13;" vertex="1" parent="iF45Mxm1k5WKYSeIEss0-98">
          <mxGeometry x="10" y="14" width="16" height="16" as="geometry" />
        </mxCell>
        <mxCell id="lS0JQyzxnlS5dcJUhoOn-8" value="Banner&lt;br&gt;Image" style="strokeWidth=1;shadow=0;dashed=0;align=center;html=1;shape=mxgraph.mockup.text.callout;linkText=;textSize=17;textColor=#666666;callDir=NW;callStyle=line;fontSize=17;fontColor=#666666;align=left;verticalAlign=top;strokeColor=#666666;fontFamily=Verdana;" parent="1" vertex="1">
          <mxGeometry x="-690" y="350" width="240" height="110" as="geometry" />
        </mxCell>
        <mxCell id="pFQr3TKwE8AE9kj7NU_g-1" value="&lt;b&gt;&lt;font color=&quot;#000000&quot;&gt;Main page&lt;/font&gt;&lt;/b&gt;" style="strokeWidth=1;shadow=0;dashed=0;align=center;html=1;shape=mxgraph.mockup.text.textBox;fontColor=#666666;align=left;fontSize=17;spacingLeft=4;spacingTop=-3;strokeColor=none;mainText=" parent="1" vertex="1">
          <mxGeometry x="-760" y="40" width="150" height="30" as="geometry" />
        </mxCell>
        <mxCell id="8r5M_L36HyFQbFAAj_BB-1" value="&lt;ul style=&quot;font-size: 14px&quot;&gt;&lt;li&gt;History of hockey including timeline&lt;/li&gt;&lt;li&gt;Facts&amp;nbsp;&lt;/li&gt;&lt;li&gt;Videos&lt;/li&gt;&lt;/ul&gt;" style="strokeWidth=1;shadow=0;dashed=0;align=center;html=1;shape=mxgraph.mockup.text.textBox;fontColor=#000000;align=left;fontSize=17;spacingLeft=4;spacingTop=-3;strokeColor=none;mainText=" parent="1" vertex="1">
          <mxGeometry x="-760" y="80" width="150" height="30" as="geometry" />
        </mxCell>
        <mxCell id="Vq7wN6k5Lwtrpj-pgbCC-3" value="" style="verticalLabelPosition=bottom;verticalAlign=top;html=1;shape=mxgraph.basic.donut;dx=6.29;strokeColor=#3333FF;fillColor=#CCFF99;" parent="1" vertex="1">
          <mxGeometry x="-180" y="875" width="30" height="30" as="geometry" />
        </mxCell>
        <mxCell id="Vq7wN6k5Lwtrpj-pgbCC-5" value="" style="verticalLabelPosition=bottom;verticalAlign=top;html=1;shape=mxgraph.basic.donut;dx=6.29;strokeColor=#3333FF;fillColor=#CCFF99;" parent="1" vertex="1">
          <mxGeometry x="-70" y="875" width="30" height="30" as="geometry" />
        </mxCell>
        <mxCell id="Vq7wN6k5Lwtrpj-pgbCC-7" value="" style="verticalLabelPosition=bottom;verticalAlign=top;html=1;shape=mxgraph.basic.donut;dx=6.29;strokeColor=#3333FF;fillColor=#CCFF99;" parent="1" vertex="1">
          <mxGeometry x="40" y="875" width="30" height="30" as="geometry" />
        </mxCell>
        <mxCell id="Vq7wN6k5Lwtrpj-pgbCC-9" value="" style="verticalLabelPosition=bottom;verticalAlign=top;html=1;shape=mxgraph.basic.donut;dx=6.29;strokeColor=#3333FF;fillColor=#CCFF99;" parent="1" vertex="1">
          <mxGeometry x="150" y="875" width="30" height="30" as="geometry" />
        </mxCell>
        <mxCell id="Vq7wN6k5Lwtrpj-pgbCC-11" value="" style="verticalLabelPosition=bottom;verticalAlign=top;html=1;shape=mxgraph.basic.donut;dx=6.29;strokeColor=#3333FF;fillColor=#CCFF99;" parent="1" vertex="1">
          <mxGeometry x="260" y="875" width="30" height="30" as="geometry" />
        </mxCell>
        <mxCell id="Vq7wN6k5Lwtrpj-pgbCC-13" value="" style="verticalLabelPosition=bottom;verticalAlign=top;html=1;shape=mxgraph.basic.donut;dx=6.29;strokeColor=#3333FF;fillColor=#CCFF99;" parent="1" vertex="1">
          <mxGeometry x="370" y="875" width="30" height="30" as="geometry" />
        </mxCell>
      </root>
    </mxGraphModel>
  </diagram>
  <diagram id="6LIQ0Oh_Yhucuo4s8fjb" name="ireland.html">
    <mxGraphModel dx="2354" dy="961" grid="1" gridSize="10" guides="1" tooltips="1" connect="1" arrows="1" fold="1" page="1" pageScale="1" pageWidth="827" pageHeight="1169" math="0" shadow="0">
      <root>
        <mxCell id="0" />
        <mxCell id="1" parent="0" />
        <mxCell id="1Xi78duEf_SRkK55Yz3g-1" value="" style="strokeWidth=1;shadow=0;dashed=0;align=center;html=1;shape=mxgraph.mockup.containers.browserWindow;rSize=0;strokeColor=none;strokeColor2=#008cff;strokeColor3=#c4c4c4;mainText=,;recursiveResize=0;fontFamily=Verdana;" parent="1" vertex="1">
          <mxGeometry x="-540" y="220" width="1160" height="750" as="geometry" />
        </mxCell>
        <mxCell id="1Xi78duEf_SRkK55Yz3g-2" value="&lt;font style=&quot;font-size: 12px&quot;&gt;Hockey | Ireland&lt;/font&gt;" style="strokeWidth=1;shadow=0;dashed=0;align=center;html=1;shape=mxgraph.mockup.containers.anchor;fontSize=17;fontColor=#666666;align=left;fontFamily=Verdana;" parent="1Xi78duEf_SRkK55Yz3g-1" vertex="1">
          <mxGeometry x="60" y="12" width="110" height="26" as="geometry" />
        </mxCell>
        <mxCell id="1Xi78duEf_SRkK55Yz3g-3" value="https://www.draw.io" style="strokeWidth=1;shadow=0;dashed=0;align=center;html=1;shape=mxgraph.mockup.containers.anchor;rSize=0;fontSize=17;fontColor=#666666;align=left;fontFamily=Verdana;" parent="1Xi78duEf_SRkK55Yz3g-1" vertex="1">
          <mxGeometry x="130" y="60" width="250" height="26" as="geometry" />
        </mxCell>
        <mxCell id="fN68tvvqH22RKP_d3ySx-1" value="" style="verticalLabelPosition=bottom;shadow=0;dashed=0;align=center;html=1;verticalAlign=top;strokeWidth=1;shape=mxgraph.mockup.graphics.simpleIcon;strokeColor=#999999;" vertex="1" parent="1Xi78duEf_SRkK55Yz3g-1">
          <mxGeometry x="65" y="190" width="1005" height="110" as="geometry" />
        </mxCell>
        <mxCell id="fN68tvvqH22RKP_d3ySx-2" value="&lt;h1&gt;Main Title&lt;/h1&gt;" style="strokeWidth=1;shadow=0;dashed=0;align=center;html=1;shape=mxgraph.mockup.text.textBox;fontColor=#666666;align=left;fontSize=17;spacingLeft=4;spacingTop=-3;strokeColor=none;mainText=;fontFamily=Montserrat Alternates;fontSource=https%3A%2F%2Ffonts.googleapis.com%2Fcss%3Ffamily%3DMontserrat%2BAlternates;" vertex="1" parent="1Xi78duEf_SRkK55Yz3g-1">
          <mxGeometry x="460" y="210" width="150" height="30" as="geometry" />
        </mxCell>
        <mxCell id="fN68tvvqH22RKP_d3ySx-3" value="&lt;font style=&quot;font-size: 15px&quot;&gt;Subtitle&lt;/font&gt;" style="strokeWidth=1;shadow=0;dashed=0;align=center;html=1;shape=mxgraph.mockup.text.textBox;fontColor=#666666;align=left;fontSize=17;spacingLeft=4;spacingTop=-3;strokeColor=none;mainText=;fontFamily=Montserrat Alternates;fontSource=https%3A%2F%2Ffonts.googleapis.com%2Fcss%3Ffamily%3DMontserrat%2BAlternates;" vertex="1" parent="1Xi78duEf_SRkK55Yz3g-1">
          <mxGeometry x="530" y="240" width="95" height="30" as="geometry" />
        </mxCell>
        <mxCell id="fN68tvvqH22RKP_d3ySx-4" value="" style="group" vertex="1" connectable="0" parent="1Xi78duEf_SRkK55Yz3g-1">
          <mxGeometry x="65" y="130" width="415" height="40" as="geometry" />
        </mxCell>
        <mxCell id="fN68tvvqH22RKP_d3ySx-5" value="" style="group" vertex="1" connectable="0" parent="fN68tvvqH22RKP_d3ySx-4">
          <mxGeometry width="120" height="40" as="geometry" />
        </mxCell>
        <mxCell id="fN68tvvqH22RKP_d3ySx-6" value="" style="rounded=1;whiteSpace=wrap;html=1;fontFamily=Montserrat Alternates;fontSource=https%3A%2F%2Ffonts.googleapis.com%2Fcss%3Ffamily%3DMontserrat%2BAlternates;fontSize=13;" vertex="1" parent="fN68tvvqH22RKP_d3ySx-5">
          <mxGeometry width="120" height="40" as="geometry" />
        </mxCell>
        <mxCell id="fN68tvvqH22RKP_d3ySx-7" value="Home" style="strokeWidth=1;shadow=0;dashed=0;align=center;html=1;shape=mxgraph.mockup.text.textBox;fontColor=#666666;align=left;fontSize=17;spacingLeft=4;spacingTop=-3;strokeColor=none;mainText=;fontFamily=Montserrat Alternates;fontSource=https%3A%2F%2Ffonts.googleapis.com%2Fcss%3Ffamily%3DMontserrat%2BAlternates;" vertex="1" parent="fN68tvvqH22RKP_d3ySx-5">
          <mxGeometry x="30" y="8" width="70" height="30" as="geometry" />
        </mxCell>
        <mxCell id="fN68tvvqH22RKP_d3ySx-8" value="" style="shape=image;aspect=fixed;image=data:image/svg+xml,PHN2ZyB4bWxucz0iaHR0cDovL3d3dy53My5vcmcvMjAwMC9zdmciIHZpZXdCb3g9IjAgMCA1NzYgNTEyIj48cGF0aCBkPSJNMjgwLjM3IDE0OC4yNkw5NiAzMDAuMTFWNDY0YTE2IDE2IDAgMCAwIDE2IDE2bDExMi4wNi0uMjlhMTYgMTYgMCAwIDAgMTUuOTItMTZWMzY4YTE2IDE2IDAgMCAxIDE2LTE2aDY0YTE2IDE2IDAgMCAxIDE2IDE2djk1LjY0YTE2IDE2IDAgMCAwIDE2IDE2LjA1TDQ2NCA0ODBhMTYgMTYgMCAwIDAgMTYtMTZWMzAwTDI5NS42NyAxNDguMjZhMTIuMTkgMTIuMTkgMCAwIDAtMTUuMyAwek01NzEuNiAyNTEuNDdMNDg4IDE4Mi41NlY0NC4wNWExMiAxMiAwIDAgMC0xMi0xMmgtNTZhMTIgMTIgMCAwIDAtMTIgMTJ2NzIuNjFMMzE4LjQ3IDQzYTQ4IDQ4IDAgMCAwLTYxIDBMNC4zNCAyNTEuNDdhMTIgMTIgMCAwIDAtMS42IDE2LjlsMjUuNSAzMUExMiAxMiAwIDAgMCA0NS4xNSAzMDFsMjM1LjIyLTE5My43NGExMi4xOSAxMi4xOSAwIDAgMSAxNS4zIDBMNTMwLjkgMzAxYTEyIDEyIDAgMCAwIDE2LjktMS42bDI1LjUtMzFhMTIgMTIgMCAwIDAtMS43LTE2LjkzeiIvPjwvc3ZnPg==;connectable=0;movable=1;verticalLabelPosition=bottom;resizable=1;rotatable=0;cloneable=0;deletable=1;recursiveResize=0;imageBackground=none;verticalAlign=top;fontFamily=Montserrat Alternates;fontSource=https%3A%2F%2Ffonts.googleapis.com%2Fcss%3Ffamily%3DMontserrat%2BAlternates;fontSize=13;" vertex="1" parent="fN68tvvqH22RKP_d3ySx-5">
          <mxGeometry x="14" y="15" width="16" height="16" as="geometry" />
        </mxCell>
        <mxCell id="fN68tvvqH22RKP_d3ySx-9" value="" style="group" vertex="1" connectable="0" parent="fN68tvvqH22RKP_d3ySx-4">
          <mxGeometry x="145" width="120" height="40" as="geometry" />
        </mxCell>
        <mxCell id="fN68tvvqH22RKP_d3ySx-10" value="" style="rounded=1;whiteSpace=wrap;html=1;fontFamily=Montserrat Alternates;fontSource=https%3A%2F%2Ffonts.googleapis.com%2Fcss%3Ffamily%3DMontserrat%2BAlternates;fontSize=13;" vertex="1" parent="fN68tvvqH22RKP_d3ySx-9">
          <mxGeometry width="120" height="40" as="geometry" />
        </mxCell>
        <mxCell id="fN68tvvqH22RKP_d3ySx-11" value="Ireland" style="strokeWidth=1;shadow=0;dashed=0;align=center;html=1;shape=mxgraph.mockup.text.textBox;fontColor=#666666;align=left;fontSize=17;spacingLeft=4;spacingTop=-3;strokeColor=none;mainText=;fontFamily=Montserrat Alternates;fontSource=https%3A%2F%2Ffonts.googleapis.com%2Fcss%3Ffamily%3DMontserrat%2BAlternates;" vertex="1" parent="fN68tvvqH22RKP_d3ySx-9">
          <mxGeometry x="30" y="8" width="70" height="30" as="geometry" />
        </mxCell>
        <mxCell id="fN68tvvqH22RKP_d3ySx-12" value="" style="shape=image;aspect=fixed;image=data:image/svg+xml,PHN2ZyB4bWxucz0iaHR0cDovL3d3dy53My5vcmcvMjAwMC9zdmciIHZpZXdCb3g9IjAgMCA1MTIgNTEyIj48cGF0aCBkPSJNMzQ5LjU2NSA5OC43ODNDMjk1Ljk3OCA5OC43ODMgMjUxLjcyMSA2NCAxODQuMzQ4IDY0Yy0yNC45NTUgMC00Ny4zMDkgNC4zODQtNjguMDQ1IDEyLjAxM2E1NS45NDcgNTUuOTQ3IDAgMCAwIDMuNTg2LTIzLjU2MkMxMTguMTE3IDI0LjAxNSA5NC44MDYgMS4yMDYgNjYuMzM4LjA0OCAzNC4zNDUtMS4yNTQgOCAyNC4yOTYgOCA1NmMwIDE5LjAyNiA5LjQ5NyAzNS44MjUgMjQgNDUuOTQ1VjQ4OGMwIDEzLjI1NSAxMC43NDUgMjQgMjQgMjRoMTZjMTMuMjU1IDAgMjQtMTAuNzQ1IDI0LTI0di05NC40YzI4LjMxMS0xMi4wNjQgNjMuNTgyLTIyLjEyMiAxMTQuNDM1LTIyLjEyMiA1My41ODggMCA5Ny44NDQgMzQuNzgzIDE2NS4yMTcgMzQuNzgzIDQ4LjE2OSAwIDg2LjY2Ny0xNi4yOTQgMTIyLjUwNS00MC44NThDNTA2Ljg0IDM1OS40NTIgNTEyIDM0OS41NzEgNTEyIDMzOS4wNDV2LTI0My4xYzAtMjMuMzkzLTI0LjI2OS0zOC44Ny00NS40ODUtMjkuMDE2LTM0LjMzOCAxNS45NDgtNzYuNDU0IDMxLjg1NC0xMTYuOTUgMzEuODU0eiIvPjwvc3ZnPg==;connectable=0;movable=1;verticalLabelPosition=bottom;resizable=1;rotatable=0;cloneable=0;deletable=1;recursiveResize=0;imageBackground=none;verticalAlign=top;fontFamily=Montserrat Alternates;fontSource=https%3A%2F%2Ffonts.googleapis.com%2Fcss%3Ffamily%3DMontserrat%2BAlternates;fontSize=13;" vertex="1" parent="fN68tvvqH22RKP_d3ySx-9">
          <mxGeometry x="13.060000000000002" y="15" width="16" height="16" as="geometry" />
        </mxCell>
        <mxCell id="fN68tvvqH22RKP_d3ySx-13" value="" style="group" vertex="1" connectable="0" parent="fN68tvvqH22RKP_d3ySx-4">
          <mxGeometry x="295" width="120" height="40" as="geometry" />
        </mxCell>
        <mxCell id="fN68tvvqH22RKP_d3ySx-14" value="" style="rounded=1;whiteSpace=wrap;html=1;fontFamily=Montserrat Alternates;fontSource=https%3A%2F%2Ffonts.googleapis.com%2Fcss%3Ffamily%3DMontserrat%2BAlternates;fontSize=13;" vertex="1" parent="fN68tvvqH22RKP_d3ySx-13">
          <mxGeometry width="120" height="40" as="geometry" />
        </mxCell>
        <mxCell id="fN68tvvqH22RKP_d3ySx-15" value="Info" style="strokeWidth=1;shadow=0;dashed=0;align=center;html=1;shape=mxgraph.mockup.text.textBox;fontColor=#666666;align=left;fontSize=17;spacingLeft=4;spacingTop=-3;strokeColor=none;mainText=;fontFamily=Montserrat Alternates;fontSource=https%3A%2F%2Ffonts.googleapis.com%2Fcss%3Ffamily%3DMontserrat%2BAlternates;" vertex="1" parent="fN68tvvqH22RKP_d3ySx-13">
          <mxGeometry x="30" y="8" width="70" height="30" as="geometry" />
        </mxCell>
        <mxCell id="fN68tvvqH22RKP_d3ySx-16" value="" style="shape=image;aspect=fixed;image=data:image/svg+xml,PHN2ZyB4bWxucz0iaHR0cDovL3d3dy53My5vcmcvMjAwMC9zdmciIHZpZXdCb3g9IjAgMCA1MTIgNTEyIj48cGF0aCBkPSJNMjU2IDhDMTE5LjA0MyA4IDggMTE5LjA4MyA4IDI1NmMwIDEzNi45OTcgMTExLjA0MyAyNDggMjQ4IDI0OHMyNDgtMTExLjAwMyAyNDgtMjQ4QzUwNCAxMTkuMDgzIDM5Mi45NTcgOCAyNTYgOHptMCAxMTBjMjMuMTk2IDAgNDIgMTguODA0IDQyIDQycy0xOC44MDQgNDItNDIgNDItNDItMTguODA0LTQyLTQyIDE4LjgwNC00MiA0Mi00MnptNTYgMjU0YzAgNi42MjctNS4zNzMgMTItMTIgMTJoLTg4Yy02LjYyNyAwLTEyLTUuMzczLTEyLTEydi0yNGMwLTYuNjI3IDUuMzczLTEyIDEyLTEyaDEydi02NGgtMTJjLTYuNjI3IDAtMTItNS4zNzMtMTItMTJ2LTI0YzAtNi42MjcgNS4zNzMtMTIgMTItMTJoNjRjNi42MjcgMCAxMiA1LjM3MyAxMiAxMnYxMDBoMTJjNi42MjcgMCAxMiA1LjM3MyAxMiAxMnYyNHoiLz48L3N2Zz4=;connectable=0;movable=1;verticalLabelPosition=bottom;resizable=1;rotatable=0;cloneable=0;deletable=1;recursiveResize=0;imageBackground=none;verticalAlign=top;fontFamily=Montserrat Alternates;fontSource=https%3A%2F%2Ffonts.googleapis.com%2Fcss%3Ffamily%3DMontserrat%2BAlternates;fontSize=13;" vertex="1" parent="fN68tvvqH22RKP_d3ySx-13">
          <mxGeometry x="10" y="14" width="16" height="16" as="geometry" />
        </mxCell>
        <mxCell id="fN68tvvqH22RKP_d3ySx-17" value="Banner&lt;br&gt;Image" style="strokeWidth=1;shadow=0;dashed=0;align=center;html=1;shape=mxgraph.mockup.text.callout;linkText=;textSize=17;textColor=#666666;callDir=NW;callStyle=line;fontSize=17;fontColor=#666666;align=left;verticalAlign=top;strokeColor=#666666;fontFamily=Verdana;" vertex="1" parent="1Xi78duEf_SRkK55Yz3g-1">
          <mxGeometry x="-150" y="150" width="240" height="110" as="geometry" />
        </mxCell>
        <mxCell id="EhIP7xvMSSnnn1oHaPS0-1" value="&lt;b&gt;&lt;font color=&quot;#000000&quot;&gt;Ireland-specific page&lt;/font&gt;&lt;/b&gt;" style="strokeWidth=1;shadow=0;dashed=0;align=center;html=1;shape=mxgraph.mockup.text.textBox;fontColor=#666666;align=left;fontSize=17;spacingLeft=4;spacingTop=-3;strokeColor=none;mainText=" parent="1" vertex="1">
          <mxGeometry x="-760" y="40" width="150" height="30" as="geometry" />
        </mxCell>
        <mxCell id="hsfocFUbdbFoDbfEC-pu-1" value="&lt;ul style=&quot;font-size: 14px&quot;&gt;&lt;li&gt;Interesting facts regarding Irish hockey&lt;/li&gt;&lt;/ul&gt;" style="strokeWidth=1;shadow=0;dashed=0;align=center;html=1;shape=mxgraph.mockup.text.textBox;fontColor=#000000;align=left;fontSize=17;spacingLeft=4;spacingTop=-3;strokeColor=none;mainText=" parent="1" vertex="1">
          <mxGeometry x="-760" y="80" width="150" height="30" as="geometry" />
        </mxCell>
      </root>
    </mxGraphModel>
  </diagram>
  <diagram name="resources.html" id="hCc4rgPqJH8QpYUVkqhM">
    <mxGraphModel dx="2354" dy="961" grid="1" gridSize="10" guides="1" tooltips="1" connect="1" arrows="1" fold="1" page="1" pageScale="1" pageWidth="827" pageHeight="1169" math="0" shadow="0">
      <root>
        <mxCell id="KBzY5KJ9VlvMmLMHG7pH-0" />
        <mxCell id="KBzY5KJ9VlvMmLMHG7pH-1" parent="KBzY5KJ9VlvMmLMHG7pH-0" />
        <mxCell id="KBzY5KJ9VlvMmLMHG7pH-2" value="" style="strokeWidth=1;shadow=0;dashed=0;align=center;html=1;shape=mxgraph.mockup.containers.browserWindow;rSize=0;strokeColor=none;strokeColor2=#008cff;strokeColor3=#c4c4c4;mainText=,;recursiveResize=0;fontFamily=Verdana;" parent="KBzY5KJ9VlvMmLMHG7pH-1" vertex="1">
          <mxGeometry x="-540" y="220" width="1160" height="750" as="geometry" />
        </mxCell>
        <mxCell id="KBzY5KJ9VlvMmLMHG7pH-3" value="&lt;font style=&quot;font-size: 12px&quot;&gt;Hockey | Ireland&lt;/font&gt;" style="strokeWidth=1;shadow=0;dashed=0;align=center;html=1;shape=mxgraph.mockup.containers.anchor;fontSize=17;fontColor=#666666;align=left;fontFamily=Verdana;" parent="KBzY5KJ9VlvMmLMHG7pH-2" vertex="1">
          <mxGeometry x="60" y="12" width="110" height="26" as="geometry" />
        </mxCell>
        <mxCell id="KBzY5KJ9VlvMmLMHG7pH-4" value="https://www.draw.io" style="strokeWidth=1;shadow=0;dashed=0;align=center;html=1;shape=mxgraph.mockup.containers.anchor;rSize=0;fontSize=17;fontColor=#666666;align=left;fontFamily=Verdana;" parent="KBzY5KJ9VlvMmLMHG7pH-2" vertex="1">
          <mxGeometry x="130" y="60" width="250" height="26" as="geometry" />
        </mxCell>
        <mxCell id="yOfyY5eIRR0AluI_nLco-0" value="" style="verticalLabelPosition=bottom;shadow=0;dashed=0;align=center;html=1;verticalAlign=top;strokeWidth=1;shape=mxgraph.mockup.graphics.simpleIcon;strokeColor=#999999;" vertex="1" parent="KBzY5KJ9VlvMmLMHG7pH-2">
          <mxGeometry x="65" y="200" width="1005" height="110" as="geometry" />
        </mxCell>
        <mxCell id="yOfyY5eIRR0AluI_nLco-1" value="&lt;h1&gt;Main Title&lt;/h1&gt;" style="strokeWidth=1;shadow=0;dashed=0;align=center;html=1;shape=mxgraph.mockup.text.textBox;fontColor=#666666;align=left;fontSize=17;spacingLeft=4;spacingTop=-3;strokeColor=none;mainText=;fontFamily=Montserrat Alternates;fontSource=https%3A%2F%2Ffonts.googleapis.com%2Fcss%3Ffamily%3DMontserrat%2BAlternates;" vertex="1" parent="KBzY5KJ9VlvMmLMHG7pH-2">
          <mxGeometry x="460" y="220" width="150" height="30" as="geometry" />
        </mxCell>
        <mxCell id="yOfyY5eIRR0AluI_nLco-2" value="&lt;font style=&quot;font-size: 15px&quot;&gt;Subtitle&lt;/font&gt;" style="strokeWidth=1;shadow=0;dashed=0;align=center;html=1;shape=mxgraph.mockup.text.textBox;fontColor=#666666;align=left;fontSize=17;spacingLeft=4;spacingTop=-3;strokeColor=none;mainText=;fontFamily=Montserrat Alternates;fontSource=https%3A%2F%2Ffonts.googleapis.com%2Fcss%3Ffamily%3DMontserrat%2BAlternates;" vertex="1" parent="KBzY5KJ9VlvMmLMHG7pH-2">
          <mxGeometry x="530" y="250" width="95" height="30" as="geometry" />
        </mxCell>
        <mxCell id="yOfyY5eIRR0AluI_nLco-3" value="" style="group" vertex="1" connectable="0" parent="KBzY5KJ9VlvMmLMHG7pH-2">
          <mxGeometry x="65" y="140" width="415" height="40" as="geometry" />
        </mxCell>
        <mxCell id="yOfyY5eIRR0AluI_nLco-4" value="" style="group" vertex="1" connectable="0" parent="yOfyY5eIRR0AluI_nLco-3">
          <mxGeometry width="120" height="40" as="geometry" />
        </mxCell>
        <mxCell id="yOfyY5eIRR0AluI_nLco-5" value="" style="rounded=1;whiteSpace=wrap;html=1;fontFamily=Montserrat Alternates;fontSource=https%3A%2F%2Ffonts.googleapis.com%2Fcss%3Ffamily%3DMontserrat%2BAlternates;fontSize=13;" vertex="1" parent="yOfyY5eIRR0AluI_nLco-4">
          <mxGeometry width="120" height="40" as="geometry" />
        </mxCell>
        <mxCell id="yOfyY5eIRR0AluI_nLco-6" value="Home" style="strokeWidth=1;shadow=0;dashed=0;align=center;html=1;shape=mxgraph.mockup.text.textBox;fontColor=#666666;align=left;fontSize=17;spacingLeft=4;spacingTop=-3;strokeColor=none;mainText=;fontFamily=Montserrat Alternates;fontSource=https%3A%2F%2Ffonts.googleapis.com%2Fcss%3Ffamily%3DMontserrat%2BAlternates;" vertex="1" parent="yOfyY5eIRR0AluI_nLco-4">
          <mxGeometry x="30" y="8" width="70" height="30" as="geometry" />
        </mxCell>
        <mxCell id="yOfyY5eIRR0AluI_nLco-7" value="" style="shape=image;aspect=fixed;image=data:image/svg+xml,PHN2ZyB4bWxucz0iaHR0cDovL3d3dy53My5vcmcvMjAwMC9zdmciIHZpZXdCb3g9IjAgMCA1NzYgNTEyIj48cGF0aCBkPSJNMjgwLjM3IDE0OC4yNkw5NiAzMDAuMTFWNDY0YTE2IDE2IDAgMCAwIDE2IDE2bDExMi4wNi0uMjlhMTYgMTYgMCAwIDAgMTUuOTItMTZWMzY4YTE2IDE2IDAgMCAxIDE2LTE2aDY0YTE2IDE2IDAgMCAxIDE2IDE2djk1LjY0YTE2IDE2IDAgMCAwIDE2IDE2LjA1TDQ2NCA0ODBhMTYgMTYgMCAwIDAgMTYtMTZWMzAwTDI5NS42NyAxNDguMjZhMTIuMTkgMTIuMTkgMCAwIDAtMTUuMyAwek01NzEuNiAyNTEuNDdMNDg4IDE4Mi41NlY0NC4wNWExMiAxMiAwIDAgMC0xMi0xMmgtNTZhMTIgMTIgMCAwIDAtMTIgMTJ2NzIuNjFMMzE4LjQ3IDQzYTQ4IDQ4IDAgMCAwLTYxIDBMNC4zNCAyNTEuNDdhMTIgMTIgMCAwIDAtMS42IDE2LjlsMjUuNSAzMUExMiAxMiAwIDAgMCA0NS4xNSAzMDFsMjM1LjIyLTE5My43NGExMi4xOSAxMi4xOSAwIDAgMSAxNS4zIDBMNTMwLjkgMzAxYTEyIDEyIDAgMCAwIDE2LjktMS42bDI1LjUtMzFhMTIgMTIgMCAwIDAtMS43LTE2LjkzeiIvPjwvc3ZnPg==;connectable=0;movable=1;verticalLabelPosition=bottom;resizable=1;rotatable=0;cloneable=0;deletable=1;recursiveResize=0;imageBackground=none;verticalAlign=top;fontFamily=Montserrat Alternates;fontSource=https%3A%2F%2Ffonts.googleapis.com%2Fcss%3Ffamily%3DMontserrat%2BAlternates;fontSize=13;" vertex="1" parent="yOfyY5eIRR0AluI_nLco-4">
          <mxGeometry x="14" y="15" width="16" height="16" as="geometry" />
        </mxCell>
        <mxCell id="yOfyY5eIRR0AluI_nLco-8" value="" style="group" vertex="1" connectable="0" parent="yOfyY5eIRR0AluI_nLco-3">
          <mxGeometry x="145" width="120" height="40" as="geometry" />
        </mxCell>
        <mxCell id="yOfyY5eIRR0AluI_nLco-9" value="" style="rounded=1;whiteSpace=wrap;html=1;fontFamily=Montserrat Alternates;fontSource=https%3A%2F%2Ffonts.googleapis.com%2Fcss%3Ffamily%3DMontserrat%2BAlternates;fontSize=13;" vertex="1" parent="yOfyY5eIRR0AluI_nLco-8">
          <mxGeometry width="120" height="40" as="geometry" />
        </mxCell>
        <mxCell id="yOfyY5eIRR0AluI_nLco-10" value="Ireland" style="strokeWidth=1;shadow=0;dashed=0;align=center;html=1;shape=mxgraph.mockup.text.textBox;fontColor=#666666;align=left;fontSize=17;spacingLeft=4;spacingTop=-3;strokeColor=none;mainText=;fontFamily=Montserrat Alternates;fontSource=https%3A%2F%2Ffonts.googleapis.com%2Fcss%3Ffamily%3DMontserrat%2BAlternates;" vertex="1" parent="yOfyY5eIRR0AluI_nLco-8">
          <mxGeometry x="30" y="8" width="70" height="30" as="geometry" />
        </mxCell>
        <mxCell id="yOfyY5eIRR0AluI_nLco-11" value="" style="shape=image;aspect=fixed;image=data:image/svg+xml,PHN2ZyB4bWxucz0iaHR0cDovL3d3dy53My5vcmcvMjAwMC9zdmciIHZpZXdCb3g9IjAgMCA1MTIgNTEyIj48cGF0aCBkPSJNMzQ5LjU2NSA5OC43ODNDMjk1Ljk3OCA5OC43ODMgMjUxLjcyMSA2NCAxODQuMzQ4IDY0Yy0yNC45NTUgMC00Ny4zMDkgNC4zODQtNjguMDQ1IDEyLjAxM2E1NS45NDcgNTUuOTQ3IDAgMCAwIDMuNTg2LTIzLjU2MkMxMTguMTE3IDI0LjAxNSA5NC44MDYgMS4yMDYgNjYuMzM4LjA0OCAzNC4zNDUtMS4yNTQgOCAyNC4yOTYgOCA1NmMwIDE5LjAyNiA5LjQ5NyAzNS44MjUgMjQgNDUuOTQ1VjQ4OGMwIDEzLjI1NSAxMC43NDUgMjQgMjQgMjRoMTZjMTMuMjU1IDAgMjQtMTAuNzQ1IDI0LTI0di05NC40YzI4LjMxMS0xMi4wNjQgNjMuNTgyLTIyLjEyMiAxMTQuNDM1LTIyLjEyMiA1My41ODggMCA5Ny44NDQgMzQuNzgzIDE2NS4yMTcgMzQuNzgzIDQ4LjE2OSAwIDg2LjY2Ny0xNi4yOTQgMTIyLjUwNS00MC44NThDNTA2Ljg0IDM1OS40NTIgNTEyIDM0OS41NzEgNTEyIDMzOS4wNDV2LTI0My4xYzAtMjMuMzkzLTI0LjI2OS0zOC44Ny00NS40ODUtMjkuMDE2LTM0LjMzOCAxNS45NDgtNzYuNDU0IDMxLjg1NC0xMTYuOTUgMzEuODU0eiIvPjwvc3ZnPg==;connectable=0;movable=1;verticalLabelPosition=bottom;resizable=1;rotatable=0;cloneable=0;deletable=1;recursiveResize=0;imageBackground=none;verticalAlign=top;fontFamily=Montserrat Alternates;fontSource=https%3A%2F%2Ffonts.googleapis.com%2Fcss%3Ffamily%3DMontserrat%2BAlternates;fontSize=13;" vertex="1" parent="yOfyY5eIRR0AluI_nLco-8">
          <mxGeometry x="13.060000000000002" y="15" width="16" height="16" as="geometry" />
        </mxCell>
        <mxCell id="yOfyY5eIRR0AluI_nLco-12" value="" style="group" vertex="1" connectable="0" parent="yOfyY5eIRR0AluI_nLco-3">
          <mxGeometry x="295" width="120" height="40" as="geometry" />
        </mxCell>
        <mxCell id="yOfyY5eIRR0AluI_nLco-13" value="" style="rounded=1;whiteSpace=wrap;html=1;fontFamily=Montserrat Alternates;fontSource=https%3A%2F%2Ffonts.googleapis.com%2Fcss%3Ffamily%3DMontserrat%2BAlternates;fontSize=13;" vertex="1" parent="yOfyY5eIRR0AluI_nLco-12">
          <mxGeometry width="120" height="40" as="geometry" />
        </mxCell>
        <mxCell id="yOfyY5eIRR0AluI_nLco-14" value="Info" style="strokeWidth=1;shadow=0;dashed=0;align=center;html=1;shape=mxgraph.mockup.text.textBox;fontColor=#666666;align=left;fontSize=17;spacingLeft=4;spacingTop=-3;strokeColor=none;mainText=;fontFamily=Montserrat Alternates;fontSource=https%3A%2F%2Ffonts.googleapis.com%2Fcss%3Ffamily%3DMontserrat%2BAlternates;" vertex="1" parent="yOfyY5eIRR0AluI_nLco-12">
          <mxGeometry x="30" y="8" width="70" height="30" as="geometry" />
        </mxCell>
        <mxCell id="yOfyY5eIRR0AluI_nLco-15" value="" style="shape=image;aspect=fixed;image=data:image/svg+xml,PHN2ZyB4bWxucz0iaHR0cDovL3d3dy53My5vcmcvMjAwMC9zdmciIHZpZXdCb3g9IjAgMCA1MTIgNTEyIj48cGF0aCBkPSJNMjU2IDhDMTE5LjA0MyA4IDggMTE5LjA4MyA4IDI1NmMwIDEzNi45OTcgMTExLjA0MyAyNDggMjQ4IDI0OHMyNDgtMTExLjAwMyAyNDgtMjQ4QzUwNCAxMTkuMDgzIDM5Mi45NTcgOCAyNTYgOHptMCAxMTBjMjMuMTk2IDAgNDIgMTguODA0IDQyIDQycy0xOC44MDQgNDItNDIgNDItNDItMTguODA0LTQyLTQyIDE4LjgwNC00MiA0Mi00MnptNTYgMjU0YzAgNi42MjctNS4zNzMgMTItMTIgMTJoLTg4Yy02LjYyNyAwLTEyLTUuMzczLTEyLTEydi0yNGMwLTYuNjI3IDUuMzczLTEyIDEyLTEyaDEydi02NGgtMTJjLTYuNjI3IDAtMTItNS4zNzMtMTItMTJ2LTI0YzAtNi42MjcgNS4zNzMtMTIgMTItMTJoNjRjNi42MjcgMCAxMiA1LjM3MyAxMiAxMnYxMDBoMTJjNi42MjcgMCAxMiA1LjM3MyAxMiAxMnYyNHoiLz48L3N2Zz4=;connectable=0;movable=1;verticalLabelPosition=bottom;resizable=1;rotatable=0;cloneable=0;deletable=1;recursiveResize=0;imageBackground=none;verticalAlign=top;fontFamily=Montserrat Alternates;fontSource=https%3A%2F%2Ffonts.googleapis.com%2Fcss%3Ffamily%3DMontserrat%2BAlternates;fontSize=13;" vertex="1" parent="yOfyY5eIRR0AluI_nLco-12">
          <mxGeometry x="10" y="14" width="16" height="16" as="geometry" />
        </mxCell>
        <mxCell id="yOfyY5eIRR0AluI_nLco-16" value="Banner&lt;br&gt;Image" style="strokeWidth=1;shadow=0;dashed=0;align=center;html=1;shape=mxgraph.mockup.text.callout;linkText=;textSize=17;textColor=#666666;callDir=NW;callStyle=line;fontSize=17;fontColor=#666666;align=left;verticalAlign=top;strokeColor=#666666;fontFamily=Verdana;" vertex="1" parent="KBzY5KJ9VlvMmLMHG7pH-2">
          <mxGeometry x="-150" y="160" width="240" height="110" as="geometry" />
        </mxCell>
        <mxCell id="X_3qLDNzdg7j5lhIgN22-0" value="&lt;b&gt;&lt;font color=&quot;#000000&quot;&gt;Resources page&lt;/font&gt;&lt;/b&gt;" style="strokeWidth=1;shadow=0;dashed=0;align=center;html=1;shape=mxgraph.mockup.text.textBox;fontColor=#666666;align=left;fontSize=17;spacingLeft=4;spacingTop=-3;strokeColor=none;mainText=" parent="KBzY5KJ9VlvMmLMHG7pH-1" vertex="1">
          <mxGeometry x="-760" y="40" width="150" height="30" as="geometry" />
        </mxCell>
        <mxCell id="0z3HysCRgLaCs4M2rw0F-0" value="&lt;ul style=&quot;font-size: 14px&quot;&gt;&lt;li&gt;Link to organisations - international&amp;nbsp;&amp;amp; Irish&lt;/li&gt;&lt;li&gt;Link to rules&lt;/li&gt;&lt;/ul&gt;" style="strokeWidth=1;shadow=0;dashed=0;align=center;html=1;shape=mxgraph.mockup.text.textBox;fontColor=#000000;align=left;fontSize=17;spacingLeft=4;spacingTop=-3;strokeColor=none;mainText=" parent="KBzY5KJ9VlvMmLMHG7pH-1" vertex="1">
          <mxGeometry x="-760" y="80" width="150" height="30" as="geometry" />
        </mxCell>
      </root>
    </mxGraphModel>
  </diagram>
</mxfile>
